<?xml version="1.0" encoding="utf-8" standalone="no"?>
<!DOCTYPE svg PUBLIC "-//W3C//DTD SVG 1.1//EN"
  "http://www.w3.org/Graphics/SVG/1.1/DTD/svg11.dtd">
<svg xmlns:xlink="http://www.w3.org/1999/xlink" width="460.8pt" height="345.6pt" viewBox="0 0 460.8 345.6" xmlns="http://www.w3.org/2000/svg" version="1.1">
 <metadata>
  <rdf:RDF xmlns:dc="http://purl.org/dc/elements/1.1/" xmlns:cc="http://creativecommons.org/ns#" xmlns:rdf="http://www.w3.org/1999/02/22-rdf-syntax-ns#">
   <cc:Work>
    <dc:type rdf:resource="http://purl.org/dc/dcmitype/StillImage"/>
    <dc:date>2024-04-02T00:57:10.794076</dc:date>
    <dc:format>image/svg+xml</dc:format>
    <dc:creator>
     <cc:Agent>
      <dc:title>Matplotlib v3.8.0, https://matplotlib.org/</dc:title>
     </cc:Agent>
    </dc:creator>
   </cc:Work>
  </rdf:RDF>
 </metadata>
 <defs>
  <style type="text/css">*{stroke-linejoin: round; stroke-linecap: butt}</style>
 </defs>
 <g id="figure_1">
  <g id="patch_1">
   <path d="M 0 345.6 
L 460.8 345.6 
L 460.8 0 
L 0 0 
L 0 345.6 
z
" style="fill: none"/>
  </g>
  <g id="axes_1">
   <g id="patch_2">
    <path d="M 57.6 307.584 
L 414.72 307.584 
L 414.72 41.472 
L 57.6 41.472 
L 57.6 307.584 
z
" style="fill: none"/>
   </g>
   <g id="matplotlib.axis_1">
    <g id="xtick_1">
     <g id="line2d_1">
      <defs>
       <path id="mdbdbc65a3b" d="M 0 0 
L 0 3.5 
" style="stroke: #000000; stroke-width: 0.8"/>
      </defs>
      <g>
       <use xlink:href="#mdbdbc65a3b" x="73.832727" y="307.584" style="stroke: #000000; stroke-width: 0.8"/>
      </g>
     </g>
     <g id="text_1">
      <!-- 0 -->
      <g transform="translate(70.651477 322.182437) scale(0.1 -0.1)">
       <defs>
        <path id="DejaVuSans-30" d="M 2034 4250 
Q 1547 4250 1301 3770 
Q 1056 3291 1056 2328 
Q 1056 1369 1301 889 
Q 1547 409 2034 409 
Q 2525 409 2770 889 
Q 3016 1369 3016 2328 
Q 3016 3291 2770 3770 
Q 2525 4250 2034 4250 
z
M 2034 4750 
Q 2819 4750 3233 4129 
Q 3647 3509 3647 2328 
Q 3647 1150 3233 529 
Q 2819 -91 2034 -91 
Q 1250 -91 836 529 
Q 422 1150 422 2328 
Q 422 3509 836 4129 
Q 1250 4750 2034 4750 
z
" transform="scale(0.015625)"/>
       </defs>
       <use xlink:href="#DejaVuSans-30"/>
      </g>
     </g>
    </g>
    <g id="xtick_2">
     <g id="line2d_2">
      <g>
       <use xlink:href="#mdbdbc65a3b" x="236.16" y="307.584" style="stroke: #000000; stroke-width: 0.8"/>
      </g>
     </g>
     <g id="text_2">
      <!-- $1 \pi$ -->
      <g transform="translate(229.96 322.182437) scale(0.1 -0.1)">
       <defs>
        <path id="DejaVuSans-31" d="M 794 531 
L 1825 531 
L 1825 4091 
L 703 3866 
L 703 4441 
L 1819 4666 
L 2450 4666 
L 2450 531 
L 3481 531 
L 3481 0 
L 794 0 
L 794 531 
z
" transform="scale(0.015625)"/>
        <path id="DejaVuSans-Oblique-3c0" d="M 584 3500 
L 3938 3500 
L 3825 2925 
L 3384 2925 
L 2966 775 
Q 2922 550 2981 450 
Q 3038 353 3209 353 
Q 3256 353 3325 363 
Q 3397 369 3419 372 
L 3338 -44 
Q 3222 -84 3103 -103 
Q 2981 -122 2866 -122 
Q 2491 -122 2388 81 
Q 2284 288 2391 838 
L 2797 2925 
L 1506 2925 
L 938 0 
L 350 0 
L 919 2925 
L 472 2925 
L 584 3500 
z
" transform="scale(0.015625)"/>
       </defs>
       <use xlink:href="#DejaVuSans-31" transform="translate(0 0.09375)"/>
       <use xlink:href="#DejaVuSans-Oblique-3c0" transform="translate(63.623047 0.09375)"/>
      </g>
     </g>
    </g>
    <g id="xtick_3">
     <g id="line2d_3">
      <g>
       <use xlink:href="#mdbdbc65a3b" x="398.487273" y="307.584" style="stroke: #000000; stroke-width: 0.8"/>
      </g>
     </g>
     <g id="text_3">
      <!-- $2 \pi$ -->
      <g transform="translate(392.287273 322.182437) scale(0.1 -0.1)">
       <defs>
        <path id="DejaVuSans-32" d="M 1228 531 
L 3431 531 
L 3431 0 
L 469 0 
L 469 531 
Q 828 903 1448 1529 
Q 2069 2156 2228 2338 
Q 2531 2678 2651 2914 
Q 2772 3150 2772 3378 
Q 2772 3750 2511 3984 
Q 2250 4219 1831 4219 
Q 1534 4219 1204 4116 
Q 875 4013 500 3803 
L 500 4441 
Q 881 4594 1212 4672 
Q 1544 4750 1819 4750 
Q 2544 4750 2975 4387 
Q 3406 4025 3406 3419 
Q 3406 3131 3298 2873 
Q 3191 2616 2906 2266 
Q 2828 2175 2409 1742 
Q 1991 1309 1228 531 
z
" transform="scale(0.015625)"/>
       </defs>
       <use xlink:href="#DejaVuSans-32" transform="translate(0 0.78125)"/>
       <use xlink:href="#DejaVuSans-Oblique-3c0" transform="translate(63.623047 0.78125)"/>
      </g>
     </g>
    </g>
    <g id="text_4">
     <!-- Time (s) -->
     <g transform="translate(215.831094 335.860562) scale(0.1 -0.1)">
      <defs>
       <path id="DejaVuSans-54" d="M -19 4666 
L 3928 4666 
L 3928 4134 
L 2272 4134 
L 2272 0 
L 1638 0 
L 1638 4134 
L -19 4134 
L -19 4666 
z
" transform="scale(0.015625)"/>
       <path id="DejaVuSans-69" d="M 603 3500 
L 1178 3500 
L 1178 0 
L 603 0 
L 603 3500 
z
M 603 4863 
L 1178 4863 
L 1178 4134 
L 603 4134 
L 603 4863 
z
" transform="scale(0.015625)"/>
       <path id="DejaVuSans-6d" d="M 3328 2828 
Q 3544 3216 3844 3400 
Q 4144 3584 4550 3584 
Q 5097 3584 5394 3201 
Q 5691 2819 5691 2113 
L 5691 0 
L 5113 0 
L 5113 2094 
Q 5113 2597 4934 2840 
Q 4756 3084 4391 3084 
Q 3944 3084 3684 2787 
Q 3425 2491 3425 1978 
L 3425 0 
L 2847 0 
L 2847 2094 
Q 2847 2600 2669 2842 
Q 2491 3084 2119 3084 
Q 1678 3084 1418 2786 
Q 1159 2488 1159 1978 
L 1159 0 
L 581 0 
L 581 3500 
L 1159 3500 
L 1159 2956 
Q 1356 3278 1631 3431 
Q 1906 3584 2284 3584 
Q 2666 3584 2933 3390 
Q 3200 3197 3328 2828 
z
" transform="scale(0.015625)"/>
       <path id="DejaVuSans-65" d="M 3597 1894 
L 3597 1613 
L 953 1613 
Q 991 1019 1311 708 
Q 1631 397 2203 397 
Q 2534 397 2845 478 
Q 3156 559 3463 722 
L 3463 178 
Q 3153 47 2828 -22 
Q 2503 -91 2169 -91 
Q 1331 -91 842 396 
Q 353 884 353 1716 
Q 353 2575 817 3079 
Q 1281 3584 2069 3584 
Q 2775 3584 3186 3129 
Q 3597 2675 3597 1894 
z
M 3022 2063 
Q 3016 2534 2758 2815 
Q 2500 3097 2075 3097 
Q 1594 3097 1305 2825 
Q 1016 2553 972 2059 
L 3022 2063 
z
" transform="scale(0.015625)"/>
       <path id="DejaVuSans-20" transform="scale(0.015625)"/>
       <path id="DejaVuSans-28" d="M 1984 4856 
Q 1566 4138 1362 3434 
Q 1159 2731 1159 2009 
Q 1159 1288 1364 580 
Q 1569 -128 1984 -844 
L 1484 -844 
Q 1016 -109 783 600 
Q 550 1309 550 2009 
Q 550 2706 781 3412 
Q 1013 4119 1484 4856 
L 1984 4856 
z
" transform="scale(0.015625)"/>
       <path id="DejaVuSans-73" d="M 2834 3397 
L 2834 2853 
Q 2591 2978 2328 3040 
Q 2066 3103 1784 3103 
Q 1356 3103 1142 2972 
Q 928 2841 928 2578 
Q 928 2378 1081 2264 
Q 1234 2150 1697 2047 
L 1894 2003 
Q 2506 1872 2764 1633 
Q 3022 1394 3022 966 
Q 3022 478 2636 193 
Q 2250 -91 1575 -91 
Q 1294 -91 989 -36 
Q 684 19 347 128 
L 347 722 
Q 666 556 975 473 
Q 1284 391 1588 391 
Q 1994 391 2212 530 
Q 2431 669 2431 922 
Q 2431 1156 2273 1281 
Q 2116 1406 1581 1522 
L 1381 1569 
Q 847 1681 609 1914 
Q 372 2147 372 2553 
Q 372 3047 722 3315 
Q 1072 3584 1716 3584 
Q 2034 3584 2315 3537 
Q 2597 3491 2834 3397 
z
" transform="scale(0.015625)"/>
       <path id="DejaVuSans-29" d="M 513 4856 
L 1013 4856 
Q 1481 4119 1714 3412 
Q 1947 2706 1947 2009 
Q 1947 1309 1714 600 
Q 1481 -109 1013 -844 
L 513 -844 
Q 928 -128 1133 580 
Q 1338 1288 1338 2009 
Q 1338 2731 1133 3434 
Q 928 4138 513 4856 
z
" transform="scale(0.015625)"/>
      </defs>
      <use xlink:href="#DejaVuSans-54"/>
      <use xlink:href="#DejaVuSans-69" x="57.958984"/>
      <use xlink:href="#DejaVuSans-6d" x="85.742188"/>
      <use xlink:href="#DejaVuSans-65" x="183.154297"/>
      <use xlink:href="#DejaVuSans-20" x="244.677734"/>
      <use xlink:href="#DejaVuSans-28" x="276.464844"/>
      <use xlink:href="#DejaVuSans-73" x="315.478516"/>
      <use xlink:href="#DejaVuSans-29" x="367.578125"/>
     </g>
    </g>
   </g>
   <g id="matplotlib.axis_2">
    <g id="ytick_1">
     <g id="line2d_4">
      <defs>
       <path id="md2cb686625" d="M 0 0 
L -3.5 0 
" style="stroke: #000000; stroke-width: 0.8"/>
      </defs>
      <g>
       <use xlink:href="#md2cb686625" x="57.6" y="295.495613" style="stroke: #000000; stroke-width: 0.8"/>
      </g>
     </g>
     <g id="text_5">
      <!-- −1.0 -->
      <g transform="translate(26.317187 299.294832) scale(0.1 -0.1)">
       <defs>
        <path id="DejaVuSans-2212" d="M 678 2272 
L 4684 2272 
L 4684 1741 
L 678 1741 
L 678 2272 
z
" transform="scale(0.015625)"/>
        <path id="DejaVuSans-2e" d="M 684 794 
L 1344 794 
L 1344 0 
L 684 0 
L 684 794 
z
" transform="scale(0.015625)"/>
       </defs>
       <use xlink:href="#DejaVuSans-2212"/>
       <use xlink:href="#DejaVuSans-31" x="83.789062"/>
       <use xlink:href="#DejaVuSans-2e" x="147.412109"/>
       <use xlink:href="#DejaVuSans-30" x="179.199219"/>
      </g>
     </g>
    </g>
    <g id="ytick_2">
     <g id="line2d_5">
      <g>
       <use xlink:href="#md2cb686625" x="57.6" y="265.254661" style="stroke: #000000; stroke-width: 0.8"/>
      </g>
     </g>
     <g id="text_6">
      <!-- −0.5 -->
      <g transform="translate(26.317187 269.05388) scale(0.1 -0.1)">
       <defs>
        <path id="DejaVuSans-35" d="M 691 4666 
L 3169 4666 
L 3169 4134 
L 1269 4134 
L 1269 2991 
Q 1406 3038 1543 3061 
Q 1681 3084 1819 3084 
Q 2600 3084 3056 2656 
Q 3513 2228 3513 1497 
Q 3513 744 3044 326 
Q 2575 -91 1722 -91 
Q 1428 -91 1123 -41 
Q 819 9 494 109 
L 494 744 
Q 775 591 1075 516 
Q 1375 441 1709 441 
Q 2250 441 2565 725 
Q 2881 1009 2881 1497 
Q 2881 1984 2565 2268 
Q 2250 2553 1709 2553 
Q 1456 2553 1204 2497 
Q 953 2441 691 2322 
L 691 4666 
z
" transform="scale(0.015625)"/>
       </defs>
       <use xlink:href="#DejaVuSans-2212"/>
       <use xlink:href="#DejaVuSans-30" x="83.789062"/>
       <use xlink:href="#DejaVuSans-2e" x="147.412109"/>
       <use xlink:href="#DejaVuSans-35" x="179.199219"/>
      </g>
     </g>
    </g>
    <g id="ytick_3">
     <g id="line2d_6">
      <g>
       <use xlink:href="#md2cb686625" x="57.6" y="235.01371" style="stroke: #000000; stroke-width: 0.8"/>
      </g>
     </g>
     <g id="text_7">
      <!-- 0.0 -->
      <g transform="translate(34.696875 238.812928) scale(0.1 -0.1)">
       <use xlink:href="#DejaVuSans-30"/>
       <use xlink:href="#DejaVuSans-2e" x="63.623047"/>
       <use xlink:href="#DejaVuSans-30" x="95.410156"/>
      </g>
     </g>
    </g>
    <g id="ytick_4">
     <g id="line2d_7">
      <g>
       <use xlink:href="#md2cb686625" x="57.6" y="204.772758" style="stroke: #000000; stroke-width: 0.8"/>
      </g>
     </g>
     <g id="text_8">
      <!-- 0.5 -->
      <g transform="translate(34.696875 208.571977) scale(0.1 -0.1)">
       <use xlink:href="#DejaVuSans-30"/>
       <use xlink:href="#DejaVuSans-2e" x="63.623047"/>
       <use xlink:href="#DejaVuSans-35" x="95.410156"/>
      </g>
     </g>
    </g>
    <g id="ytick_5">
     <g id="line2d_8">
      <g>
       <use xlink:href="#md2cb686625" x="57.6" y="174.531806" style="stroke: #000000; stroke-width: 0.8"/>
      </g>
     </g>
     <g id="text_9">
      <!-- 1.0 -->
      <g transform="translate(34.696875 178.331025) scale(0.1 -0.1)">
       <use xlink:href="#DejaVuSans-31"/>
       <use xlink:href="#DejaVuSans-2e" x="63.623047"/>
       <use xlink:href="#DejaVuSans-30" x="95.410156"/>
      </g>
     </g>
    </g>
    <g id="ytick_6">
     <g id="line2d_9">
      <g>
       <use xlink:href="#md2cb686625" x="57.6" y="144.290855" style="stroke: #000000; stroke-width: 0.8"/>
      </g>
     </g>
     <g id="text_10">
      <!-- 1.5 -->
      <g transform="translate(34.696875 148.090074) scale(0.1 -0.1)">
       <use xlink:href="#DejaVuSans-31"/>
       <use xlink:href="#DejaVuSans-2e" x="63.623047"/>
       <use xlink:href="#DejaVuSans-35" x="95.410156"/>
      </g>
     </g>
    </g>
    <g id="ytick_7">
     <g id="line2d_10">
      <g>
       <use xlink:href="#md2cb686625" x="57.6" y="114.049903" style="stroke: #000000; stroke-width: 0.8"/>
      </g>
     </g>
     <g id="text_11">
      <!-- 2.0 -->
      <g transform="translate(34.696875 117.849122) scale(0.1 -0.1)">
       <use xlink:href="#DejaVuSans-32"/>
       <use xlink:href="#DejaVuSans-2e" x="63.623047"/>
       <use xlink:href="#DejaVuSans-30" x="95.410156"/>
      </g>
     </g>
    </g>
    <g id="ytick_8">
     <g id="line2d_11">
      <g>
       <use xlink:href="#md2cb686625" x="57.6" y="83.808952" style="stroke: #000000; stroke-width: 0.8"/>
      </g>
     </g>
     <g id="text_12">
      <!-- 2.5 -->
      <g transform="translate(34.696875 87.60817) scale(0.1 -0.1)">
       <use xlink:href="#DejaVuSans-32"/>
       <use xlink:href="#DejaVuSans-2e" x="63.623047"/>
       <use xlink:href="#DejaVuSans-35" x="95.410156"/>
      </g>
     </g>
    </g>
    <g id="ytick_9">
     <g id="line2d_12">
      <g>
       <use xlink:href="#md2cb686625" x="57.6" y="53.568" style="stroke: #000000; stroke-width: 0.8"/>
      </g>
     </g>
     <g id="text_13">
      <!-- 3.0 -->
      <g transform="translate(34.696875 57.367219) scale(0.1 -0.1)">
       <defs>
        <path id="DejaVuSans-33" d="M 2597 2516 
Q 3050 2419 3304 2112 
Q 3559 1806 3559 1356 
Q 3559 666 3084 287 
Q 2609 -91 1734 -91 
Q 1441 -91 1130 -33 
Q 819 25 488 141 
L 488 750 
Q 750 597 1062 519 
Q 1375 441 1716 441 
Q 2309 441 2620 675 
Q 2931 909 2931 1356 
Q 2931 1769 2642 2001 
Q 2353 2234 1838 2234 
L 1294 2234 
L 1294 2753 
L 1863 2753 
Q 2328 2753 2575 2939 
Q 2822 3125 2822 3475 
Q 2822 3834 2567 4026 
Q 2313 4219 1838 4219 
Q 1578 4219 1281 4162 
Q 984 4106 628 3988 
L 628 4550 
Q 988 4650 1302 4700 
Q 1616 4750 1894 4750 
Q 2613 4750 3031 4423 
Q 3450 4097 3450 3541 
Q 3450 3153 3228 2886 
Q 3006 2619 2597 2516 
z
" transform="scale(0.015625)"/>
       </defs>
       <use xlink:href="#DejaVuSans-33"/>
       <use xlink:href="#DejaVuSans-2e" x="63.623047"/>
       <use xlink:href="#DejaVuSans-30" x="95.410156"/>
      </g>
     </g>
    </g>
    <g id="text_14">
     <!-- Amplitude -->
     <g transform="translate(20.2375 200.150656) rotate(-90) scale(0.1 -0.1)">
      <defs>
       <path id="DejaVuSans-41" d="M 2188 4044 
L 1331 1722 
L 3047 1722 
L 2188 4044 
z
M 1831 4666 
L 2547 4666 
L 4325 0 
L 3669 0 
L 3244 1197 
L 1141 1197 
L 716 0 
L 50 0 
L 1831 4666 
z
" transform="scale(0.015625)"/>
       <path id="DejaVuSans-70" d="M 1159 525 
L 1159 -1331 
L 581 -1331 
L 581 3500 
L 1159 3500 
L 1159 2969 
Q 1341 3281 1617 3432 
Q 1894 3584 2278 3584 
Q 2916 3584 3314 3078 
Q 3713 2572 3713 1747 
Q 3713 922 3314 415 
Q 2916 -91 2278 -91 
Q 1894 -91 1617 61 
Q 1341 213 1159 525 
z
M 3116 1747 
Q 3116 2381 2855 2742 
Q 2594 3103 2138 3103 
Q 1681 3103 1420 2742 
Q 1159 2381 1159 1747 
Q 1159 1113 1420 752 
Q 1681 391 2138 391 
Q 2594 391 2855 752 
Q 3116 1113 3116 1747 
z
" transform="scale(0.015625)"/>
       <path id="DejaVuSans-6c" d="M 603 4863 
L 1178 4863 
L 1178 0 
L 603 0 
L 603 4863 
z
" transform="scale(0.015625)"/>
       <path id="DejaVuSans-74" d="M 1172 4494 
L 1172 3500 
L 2356 3500 
L 2356 3053 
L 1172 3053 
L 1172 1153 
Q 1172 725 1289 603 
Q 1406 481 1766 481 
L 2356 481 
L 2356 0 
L 1766 0 
Q 1100 0 847 248 
Q 594 497 594 1153 
L 594 3053 
L 172 3053 
L 172 3500 
L 594 3500 
L 594 4494 
L 1172 4494 
z
" transform="scale(0.015625)"/>
       <path id="DejaVuSans-75" d="M 544 1381 
L 544 3500 
L 1119 3500 
L 1119 1403 
Q 1119 906 1312 657 
Q 1506 409 1894 409 
Q 2359 409 2629 706 
Q 2900 1003 2900 1516 
L 2900 3500 
L 3475 3500 
L 3475 0 
L 2900 0 
L 2900 538 
Q 2691 219 2414 64 
Q 2138 -91 1772 -91 
Q 1169 -91 856 284 
Q 544 659 544 1381 
z
M 1991 3584 
L 1991 3584 
z
" transform="scale(0.015625)"/>
       <path id="DejaVuSans-64" d="M 2906 2969 
L 2906 4863 
L 3481 4863 
L 3481 0 
L 2906 0 
L 2906 525 
Q 2725 213 2448 61 
Q 2172 -91 1784 -91 
Q 1150 -91 751 415 
Q 353 922 353 1747 
Q 353 2572 751 3078 
Q 1150 3584 1784 3584 
Q 2172 3584 2448 3432 
Q 2725 3281 2906 2969 
z
M 947 1747 
Q 947 1113 1208 752 
Q 1469 391 1925 391 
Q 2381 391 2643 752 
Q 2906 1113 2906 1747 
Q 2906 2381 2643 2742 
Q 2381 3103 1925 3103 
Q 1469 3103 1208 2742 
Q 947 2381 947 1747 
z
" transform="scale(0.015625)"/>
      </defs>
      <use xlink:href="#DejaVuSans-41"/>
      <use xlink:href="#DejaVuSans-6d" x="68.408203"/>
      <use xlink:href="#DejaVuSans-70" x="165.820312"/>
      <use xlink:href="#DejaVuSans-6c" x="229.296875"/>
      <use xlink:href="#DejaVuSans-69" x="257.080078"/>
      <use xlink:href="#DejaVuSans-74" x="284.863281"/>
      <use xlink:href="#DejaVuSans-75" x="324.072266"/>
      <use xlink:href="#DejaVuSans-64" x="387.451172"/>
      <use xlink:href="#DejaVuSans-65" x="450.927734"/>
     </g>
    </g>
   </g>
   <g id="line2d_13">
    <path d="M 73.832727 235.01371 
L 77.112066 231.17771 
L 80.391405 227.357157 
L 83.670744 223.567434 
L 86.950083 219.823801 
L 90.229421 216.141333 
L 93.50876 212.534857 
L 96.788099 209.018895 
L 100.067438 205.607606 
L 103.346777 202.314724 
L 106.626116 199.15351 
L 109.905455 196.136692 
L 113.184793 193.276418 
L 116.464132 190.584205 
L 119.743471 188.070894 
L 123.02281 185.746606 
L 126.302149 183.620699 
L 129.581488 181.701733 
L 132.860826 179.997435 
L 136.140165 178.514669 
L 139.419504 177.259405 
L 142.698843 176.236696 
L 145.978182 175.450663 
L 149.257521 174.904468 
L 152.53686 174.600312 
L 155.816198 174.539419 
L 159.095537 174.722036 
L 162.374876 175.147425 
L 165.654215 175.813875 
L 168.933554 176.718702 
L 172.212893 177.858262 
L 175.492231 179.227967 
L 178.77157 180.822301 
L 182.050909 182.634845 
L 185.330248 184.6583 
L 188.609587 186.884519 
L 191.888926 189.304537 
L 195.168264 191.90861 
L 198.447603 194.686252 
L 201.726942 197.626278 
L 205.006281 200.71685 
L 208.28562 203.945523 
L 211.564959 207.299298 
L 214.844298 210.764668 
L 218.123636 214.327681 
L 221.402975 217.973989 
L 224.682314 221.688909 
L 227.961653 225.457485 
L 231.240992 229.264539 
L 234.520331 233.094744 
L 237.799669 236.932676 
L 241.079008 240.76288 
L 244.358347 244.569935 
L 247.637686 248.33851 
L 250.917025 252.053431 
L 254.196364 255.699739 
L 257.475702 259.262752 
L 260.755041 262.728122 
L 264.03438 266.081896 
L 267.313719 269.31057 
L 270.593058 272.401142 
L 273.872397 275.341168 
L 277.151736 278.11881 
L 280.431074 280.722882 
L 283.710413 283.1429 
L 286.989752 285.369119 
L 290.269091 287.392574 
L 293.54843 289.205119 
L 296.827769 290.799453 
L 300.107107 292.169158 
L 303.386446 293.308718 
L 306.665785 294.213545 
L 309.945124 294.879994 
L 313.224463 295.305384 
L 316.503802 295.488 
L 319.78314 295.427108 
L 323.062479 295.122952 
L 326.341818 294.576757 
L 329.621157 293.790723 
L 332.900496 292.768015 
L 336.179835 291.51275 
L 339.459174 290.029984 
L 342.738512 288.325687 
L 346.017851 286.406721 
L 349.29719 284.280814 
L 352.576529 281.956525 
L 355.855868 279.443214 
L 359.135207 276.751002 
L 362.414545 273.890728 
L 365.693884 270.87391 
L 368.973223 267.712695 
L 372.252562 264.419814 
L 375.531901 261.008524 
L 378.81124 257.492562 
L 382.090579 253.886086 
L 385.369917 250.203618 
L 388.649256 246.459985 
L 391.928595 242.670262 
L 395.207934 238.849709 
L 398.487273 235.01371 
" clip-path="url(#pa2cd40f55a)" style="fill: none; stroke: #0000ff; stroke-linecap: square"/>
   </g>
   <g id="line2d_14">
    <path d="M 73.832727 235.01371 
L 77.112066 223.567434 
L 80.391405 212.534857 
L 83.670744 202.314724 
L 86.950083 193.276418 
L 90.229421 185.746606 
L 93.50876 179.997435 
L 96.788099 176.236696 
L 100.067438 174.600312 
L 103.346777 175.147425 
L 106.626116 177.858262 
L 109.905455 182.634845 
L 113.184793 189.304537 
L 116.464132 197.626278 
L 119.743471 207.299298 
L 123.02281 217.973989 
L 126.302149 229.264539 
L 129.581488 240.76288 
L 132.860826 252.053431 
L 136.140165 262.728122 
L 139.419504 272.401142 
L 142.698843 280.722882 
L 145.978182 287.392574 
L 149.257521 292.169158 
L 152.53686 294.879994 
L 155.816198 295.427108 
L 159.095537 293.790723 
L 162.374876 290.029984 
L 165.654215 284.280814 
L 168.933554 276.751002 
L 172.212893 267.712695 
L 175.492231 257.492562 
L 178.77157 246.459985 
L 182.050909 235.01371 
L 185.330248 223.567434 
L 188.609587 212.534857 
L 191.888926 202.314724 
L 195.168264 193.276418 
L 198.447603 185.746606 
L 201.726942 179.997435 
L 205.006281 176.236696 
L 208.28562 174.600312 
L 211.564959 175.147425 
L 214.844298 177.858262 
L 218.123636 182.634845 
L 221.402975 189.304537 
L 224.682314 197.626278 
L 227.961653 207.299298 
L 231.240992 217.973989 
L 234.520331 229.264539 
L 237.799669 240.76288 
L 241.079008 252.053431 
L 244.358347 262.728122 
L 247.637686 272.401142 
L 250.917025 280.722882 
L 254.196364 287.392574 
L 257.475702 292.169158 
L 260.755041 294.879994 
L 264.03438 295.427108 
L 267.313719 293.790723 
L 270.593058 290.029984 
L 273.872397 284.280814 
L 277.151736 276.751002 
L 280.431074 267.712695 
L 283.710413 257.492562 
L 286.989752 246.459985 
L 290.269091 235.01371 
L 293.54843 223.567434 
L 296.827769 212.534857 
L 300.107107 202.314724 
L 303.386446 193.276418 
L 306.665785 185.746606 
L 309.945124 179.997435 
L 313.224463 176.236696 
L 316.503802 174.600312 
L 319.78314 175.147425 
L 323.062479 177.858262 
L 326.341818 182.634845 
L 329.621157 189.304537 
L 332.900496 197.626278 
L 336.179835 207.299298 
L 339.459174 217.973989 
L 342.738512 229.264539 
L 346.017851 240.76288 
L 349.29719 252.053431 
L 352.576529 262.728122 
L 355.855868 272.401142 
L 359.135207 280.722882 
L 362.414545 287.392574 
L 365.693884 292.169158 
L 368.973223 294.879994 
L 372.252562 295.427108 
L 375.531901 293.790723 
L 378.81124 290.029984 
L 382.090579 284.280814 
L 385.369917 276.751002 
L 388.649256 267.712695 
L 391.928595 257.492562 
L 395.207934 246.459985 
L 398.487273 235.01371 
" clip-path="url(#pa2cd40f55a)" style="fill: none; stroke-dasharray: 3.7,1.6; stroke-dashoffset: 0; stroke: #008000"/>
   </g>
   <g id="line2d_15">
    <defs>
     <path id="mb6692c290d" d="M 0 1 
C 0.265203 1 0.51958 0.894634 0.707107 0.707107 
C 0.894634 0.51958 1 0.265203 1 0 
C 1 -0.265203 0.894634 -0.51958 0.707107 -0.707107 
C 0.51958 -0.894634 0.265203 -1 0 -1 
C -0.265203 -1 -0.51958 -0.894634 -0.707107 -0.707107 
C -0.894634 -0.51958 -1 -0.265203 -1 0 
C -1 0.265203 -0.894634 0.51958 -0.707107 0.707107 
C -0.51958 0.894634 -0.265203 1 0 1 
z
" style="stroke: #000000"/>
    </defs>
    <g clip-path="url(#pa2cd40f55a)">
     <use xlink:href="#mb6692c290d" x="73.832727" y="53.568" style="stroke: #000000"/>
     <use xlink:href="#mb6692c290d" x="77.112066" y="55.753974" style="stroke: #000000"/>
     <use xlink:href="#mb6692c290d" x="80.391405" y="62.232887" style="stroke: #000000"/>
     <use xlink:href="#mb6692c290d" x="83.670744" y="72.770577" style="stroke: #000000"/>
     <use xlink:href="#mb6692c290d" x="86.950083" y="86.986182" style="stroke: #000000"/>
     <use xlink:href="#mb6692c290d" x="90.229421" y="104.365915" style="stroke: #000000"/>
     <use xlink:href="#mb6692c290d" x="93.50876" y="124.281625" style="stroke: #000000"/>
     <use xlink:href="#mb6692c290d" x="96.788099" y="146.013508" style="stroke: #000000"/>
     <use xlink:href="#mb6692c290d" x="100.067438" y="168.776117" style="stroke: #000000"/>
     <use xlink:href="#mb6692c290d" x="103.346777" y="191.746751" style="stroke: #000000"/>
     <use xlink:href="#mb6692c290d" x="106.626116" y="214.095192" style="stroke: #000000"/>
     <use xlink:href="#mb6692c290d" x="109.905455" y="235.01371" style="stroke: #000000"/>
     <use xlink:href="#mb6692c290d" x="113.184793" y="253.746254" style="stroke: #000000"/>
     <use xlink:href="#mb6692c290d" x="116.464132" y="269.615781" style="stroke: #000000"/>
     <use xlink:href="#mb6692c290d" x="119.743471" y="282.048726" style="stroke: #000000"/>
     <use xlink:href="#mb6692c290d" x="123.02281" y="290.595729" style="stroke: #000000"/>
     <use xlink:href="#mb6692c290d" x="126.302149" y="294.94788" style="stroke: #000000"/>
     <use xlink:href="#mb6692c290d" x="129.581488" y="294.94788" style="stroke: #000000"/>
     <use xlink:href="#mb6692c290d" x="132.860826" y="290.595729" style="stroke: #000000"/>
     <use xlink:href="#mb6692c290d" x="136.140165" y="282.048726" style="stroke: #000000"/>
     <use xlink:href="#mb6692c290d" x="139.419504" y="269.615781" style="stroke: #000000"/>
     <use xlink:href="#mb6692c290d" x="142.698843" y="253.746254" style="stroke: #000000"/>
     <use xlink:href="#mb6692c290d" x="145.978182" y="235.01371" style="stroke: #000000"/>
     <use xlink:href="#mb6692c290d" x="149.257521" y="214.095192" style="stroke: #000000"/>
     <use xlink:href="#mb6692c290d" x="152.53686" y="191.746751" style="stroke: #000000"/>
     <use xlink:href="#mb6692c290d" x="155.816198" y="168.776117" style="stroke: #000000"/>
     <use xlink:href="#mb6692c290d" x="159.095537" y="146.013508" style="stroke: #000000"/>
     <use xlink:href="#mb6692c290d" x="162.374876" y="124.281625" style="stroke: #000000"/>
     <use xlink:href="#mb6692c290d" x="165.654215" y="104.365915" style="stroke: #000000"/>
     <use xlink:href="#mb6692c290d" x="168.933554" y="86.986182" style="stroke: #000000"/>
     <use xlink:href="#mb6692c290d" x="172.212893" y="72.770577" style="stroke: #000000"/>
     <use xlink:href="#mb6692c290d" x="175.492231" y="62.232887" style="stroke: #000000"/>
     <use xlink:href="#mb6692c290d" x="178.77157" y="55.753974" style="stroke: #000000"/>
     <use xlink:href="#mb6692c290d" x="182.050909" y="53.568" style="stroke: #000000"/>
     <use xlink:href="#mb6692c290d" x="185.330248" y="55.753974" style="stroke: #000000"/>
     <use xlink:href="#mb6692c290d" x="188.609587" y="62.232887" style="stroke: #000000"/>
     <use xlink:href="#mb6692c290d" x="191.888926" y="72.770577" style="stroke: #000000"/>
     <use xlink:href="#mb6692c290d" x="195.168264" y="86.986182" style="stroke: #000000"/>
     <use xlink:href="#mb6692c290d" x="198.447603" y="104.365915" style="stroke: #000000"/>
     <use xlink:href="#mb6692c290d" x="201.726942" y="124.281625" style="stroke: #000000"/>
     <use xlink:href="#mb6692c290d" x="205.006281" y="146.013508" style="stroke: #000000"/>
     <use xlink:href="#mb6692c290d" x="208.28562" y="168.776117" style="stroke: #000000"/>
     <use xlink:href="#mb6692c290d" x="211.564959" y="191.746751" style="stroke: #000000"/>
     <use xlink:href="#mb6692c290d" x="214.844298" y="214.095192" style="stroke: #000000"/>
     <use xlink:href="#mb6692c290d" x="218.123636" y="235.01371" style="stroke: #000000"/>
     <use xlink:href="#mb6692c290d" x="221.402975" y="253.746254" style="stroke: #000000"/>
     <use xlink:href="#mb6692c290d" x="224.682314" y="269.615781" style="stroke: #000000"/>
     <use xlink:href="#mb6692c290d" x="227.961653" y="282.048726" style="stroke: #000000"/>
     <use xlink:href="#mb6692c290d" x="231.240992" y="290.595729" style="stroke: #000000"/>
     <use xlink:href="#mb6692c290d" x="234.520331" y="294.94788" style="stroke: #000000"/>
     <use xlink:href="#mb6692c290d" x="237.799669" y="294.94788" style="stroke: #000000"/>
     <use xlink:href="#mb6692c290d" x="241.079008" y="290.595729" style="stroke: #000000"/>
     <use xlink:href="#mb6692c290d" x="244.358347" y="282.048726" style="stroke: #000000"/>
     <use xlink:href="#mb6692c290d" x="247.637686" y="269.615781" style="stroke: #000000"/>
     <use xlink:href="#mb6692c290d" x="250.917025" y="253.746254" style="stroke: #000000"/>
     <use xlink:href="#mb6692c290d" x="254.196364" y="235.01371" style="stroke: #000000"/>
     <use xlink:href="#mb6692c290d" x="257.475702" y="214.095192" style="stroke: #000000"/>
     <use xlink:href="#mb6692c290d" x="260.755041" y="191.746751" style="stroke: #000000"/>
     <use xlink:href="#mb6692c290d" x="264.03438" y="168.776117" style="stroke: #000000"/>
     <use xlink:href="#mb6692c290d" x="267.313719" y="146.013508" style="stroke: #000000"/>
     <use xlink:href="#mb6692c290d" x="270.593058" y="124.281625" style="stroke: #000000"/>
     <use xlink:href="#mb6692c290d" x="273.872397" y="104.365915" style="stroke: #000000"/>
     <use xlink:href="#mb6692c290d" x="277.151736" y="86.986182" style="stroke: #000000"/>
     <use xlink:href="#mb6692c290d" x="280.431074" y="72.770577" style="stroke: #000000"/>
     <use xlink:href="#mb6692c290d" x="283.710413" y="62.232887" style="stroke: #000000"/>
     <use xlink:href="#mb6692c290d" x="286.989752" y="55.753974" style="stroke: #000000"/>
     <use xlink:href="#mb6692c290d" x="290.269091" y="53.568" style="stroke: #000000"/>
     <use xlink:href="#mb6692c290d" x="293.54843" y="55.753974" style="stroke: #000000"/>
     <use xlink:href="#mb6692c290d" x="296.827769" y="62.232887" style="stroke: #000000"/>
     <use xlink:href="#mb6692c290d" x="300.107107" y="72.770577" style="stroke: #000000"/>
     <use xlink:href="#mb6692c290d" x="303.386446" y="86.986182" style="stroke: #000000"/>
     <use xlink:href="#mb6692c290d" x="306.665785" y="104.365915" style="stroke: #000000"/>
     <use xlink:href="#mb6692c290d" x="309.945124" y="124.281625" style="stroke: #000000"/>
     <use xlink:href="#mb6692c290d" x="313.224463" y="146.013508" style="stroke: #000000"/>
     <use xlink:href="#mb6692c290d" x="316.503802" y="168.776117" style="stroke: #000000"/>
     <use xlink:href="#mb6692c290d" x="319.78314" y="191.746751" style="stroke: #000000"/>
     <use xlink:href="#mb6692c290d" x="323.062479" y="214.095192" style="stroke: #000000"/>
     <use xlink:href="#mb6692c290d" x="326.341818" y="235.01371" style="stroke: #000000"/>
     <use xlink:href="#mb6692c290d" x="329.621157" y="253.746254" style="stroke: #000000"/>
     <use xlink:href="#mb6692c290d" x="332.900496" y="269.615781" style="stroke: #000000"/>
     <use xlink:href="#mb6692c290d" x="336.179835" y="282.048726" style="stroke: #000000"/>
     <use xlink:href="#mb6692c290d" x="339.459174" y="290.595729" style="stroke: #000000"/>
     <use xlink:href="#mb6692c290d" x="342.738512" y="294.94788" style="stroke: #000000"/>
     <use xlink:href="#mb6692c290d" x="346.017851" y="294.94788" style="stroke: #000000"/>
     <use xlink:href="#mb6692c290d" x="349.29719" y="290.595729" style="stroke: #000000"/>
     <use xlink:href="#mb6692c290d" x="352.576529" y="282.048726" style="stroke: #000000"/>
     <use xlink:href="#mb6692c290d" x="355.855868" y="269.615781" style="stroke: #000000"/>
     <use xlink:href="#mb6692c290d" x="359.135207" y="253.746254" style="stroke: #000000"/>
     <use xlink:href="#mb6692c290d" x="362.414545" y="235.01371" style="stroke: #000000"/>
     <use xlink:href="#mb6692c290d" x="365.693884" y="214.095192" style="stroke: #000000"/>
     <use xlink:href="#mb6692c290d" x="368.973223" y="191.746751" style="stroke: #000000"/>
     <use xlink:href="#mb6692c290d" x="372.252562" y="168.776117" style="stroke: #000000"/>
     <use xlink:href="#mb6692c290d" x="375.531901" y="146.013508" style="stroke: #000000"/>
     <use xlink:href="#mb6692c290d" x="378.81124" y="124.281625" style="stroke: #000000"/>
     <use xlink:href="#mb6692c290d" x="382.090579" y="104.365915" style="stroke: #000000"/>
     <use xlink:href="#mb6692c290d" x="385.369917" y="86.986182" style="stroke: #000000"/>
     <use xlink:href="#mb6692c290d" x="388.649256" y="72.770577" style="stroke: #000000"/>
     <use xlink:href="#mb6692c290d" x="391.928595" y="62.232887" style="stroke: #000000"/>
     <use xlink:href="#mb6692c290d" x="395.207934" y="55.753974" style="stroke: #000000"/>
     <use xlink:href="#mb6692c290d" x="398.487273" y="53.568" style="stroke: #000000"/>
    </g>
   </g>
   <g id="line2d_16">
    <path d="M 57.6 235.01371 
L 414.72 235.01371 
" clip-path="url(#pa2cd40f55a)" style="fill: none; stroke-dasharray: 0.5,0.825; stroke-dashoffset: 0; stroke: #000000; stroke-width: 0.5"/>
   </g>
   <g id="line2d_17">
    <path d="M 73.832727 307.584 
L 73.832727 41.472 
" clip-path="url(#pa2cd40f55a)" style="fill: none; stroke-dasharray: 0.5,0.825; stroke-dashoffset: 0; stroke: #000000; stroke-width: 0.5"/>
   </g>
   <g id="patch_3">
    <path d="M 57.6 307.584 
L 57.6 41.472 
" style="fill: none; stroke: #000000; stroke-width: 0.8; stroke-linejoin: miter; stroke-linecap: square"/>
   </g>
   <g id="patch_4">
    <path d="M 414.72 307.584 
L 414.72 41.472 
" style="fill: none; stroke: #000000; stroke-width: 0.8; stroke-linejoin: miter; stroke-linecap: square"/>
   </g>
   <g id="patch_5">
    <path d="M 57.6 307.584 
L 414.72 307.584 
" style="fill: none; stroke: #000000; stroke-width: 0.8; stroke-linejoin: miter; stroke-linecap: square"/>
   </g>
   <g id="patch_6">
    <path d="M 57.6 41.472 
L 414.72 41.472 
" style="fill: none; stroke: #000000; stroke-width: 0.8; stroke-linejoin: miter; stroke-linecap: square"/>
   </g>
   <g id="text_15">
    <!-- Some more sine waves -->
    <g transform="translate(166.644375 35.472) scale(0.12 -0.12)">
     <defs>
      <path id="DejaVuSans-53" d="M 3425 4513 
L 3425 3897 
Q 3066 4069 2747 4153 
Q 2428 4238 2131 4238 
Q 1616 4238 1336 4038 
Q 1056 3838 1056 3469 
Q 1056 3159 1242 3001 
Q 1428 2844 1947 2747 
L 2328 2669 
Q 3034 2534 3370 2195 
Q 3706 1856 3706 1288 
Q 3706 609 3251 259 
Q 2797 -91 1919 -91 
Q 1588 -91 1214 -16 
Q 841 59 441 206 
L 441 856 
Q 825 641 1194 531 
Q 1563 422 1919 422 
Q 2459 422 2753 634 
Q 3047 847 3047 1241 
Q 3047 1584 2836 1778 
Q 2625 1972 2144 2069 
L 1759 2144 
Q 1053 2284 737 2584 
Q 422 2884 422 3419 
Q 422 4038 858 4394 
Q 1294 4750 2059 4750 
Q 2388 4750 2728 4690 
Q 3069 4631 3425 4513 
z
" transform="scale(0.015625)"/>
      <path id="DejaVuSans-6f" d="M 1959 3097 
Q 1497 3097 1228 2736 
Q 959 2375 959 1747 
Q 959 1119 1226 758 
Q 1494 397 1959 397 
Q 2419 397 2687 759 
Q 2956 1122 2956 1747 
Q 2956 2369 2687 2733 
Q 2419 3097 1959 3097 
z
M 1959 3584 
Q 2709 3584 3137 3096 
Q 3566 2609 3566 1747 
Q 3566 888 3137 398 
Q 2709 -91 1959 -91 
Q 1206 -91 779 398 
Q 353 888 353 1747 
Q 353 2609 779 3096 
Q 1206 3584 1959 3584 
z
" transform="scale(0.015625)"/>
      <path id="DejaVuSans-72" d="M 2631 2963 
Q 2534 3019 2420 3045 
Q 2306 3072 2169 3072 
Q 1681 3072 1420 2755 
Q 1159 2438 1159 1844 
L 1159 0 
L 581 0 
L 581 3500 
L 1159 3500 
L 1159 2956 
Q 1341 3275 1631 3429 
Q 1922 3584 2338 3584 
Q 2397 3584 2469 3576 
Q 2541 3569 2628 3553 
L 2631 2963 
z
" transform="scale(0.015625)"/>
      <path id="DejaVuSans-6e" d="M 3513 2113 
L 3513 0 
L 2938 0 
L 2938 2094 
Q 2938 2591 2744 2837 
Q 2550 3084 2163 3084 
Q 1697 3084 1428 2787 
Q 1159 2491 1159 1978 
L 1159 0 
L 581 0 
L 581 3500 
L 1159 3500 
L 1159 2956 
Q 1366 3272 1645 3428 
Q 1925 3584 2291 3584 
Q 2894 3584 3203 3211 
Q 3513 2838 3513 2113 
z
" transform="scale(0.015625)"/>
      <path id="DejaVuSans-77" d="M 269 3500 
L 844 3500 
L 1563 769 
L 2278 3500 
L 2956 3500 
L 3675 769 
L 4391 3500 
L 4966 3500 
L 4050 0 
L 3372 0 
L 2619 2869 
L 1863 0 
L 1184 0 
L 269 3500 
z
" transform="scale(0.015625)"/>
      <path id="DejaVuSans-61" d="M 2194 1759 
Q 1497 1759 1228 1600 
Q 959 1441 959 1056 
Q 959 750 1161 570 
Q 1363 391 1709 391 
Q 2188 391 2477 730 
Q 2766 1069 2766 1631 
L 2766 1759 
L 2194 1759 
z
M 3341 1997 
L 3341 0 
L 2766 0 
L 2766 531 
Q 2569 213 2275 61 
Q 1981 -91 1556 -91 
Q 1019 -91 701 211 
Q 384 513 384 1019 
Q 384 1609 779 1909 
Q 1175 2209 1959 2209 
L 2766 2209 
L 2766 2266 
Q 2766 2663 2505 2880 
Q 2244 3097 1772 3097 
Q 1472 3097 1187 3025 
Q 903 2953 641 2809 
L 641 3341 
Q 956 3463 1253 3523 
Q 1550 3584 1831 3584 
Q 2591 3584 2966 3190 
Q 3341 2797 3341 1997 
z
" transform="scale(0.015625)"/>
      <path id="DejaVuSans-76" d="M 191 3500 
L 800 3500 
L 1894 563 
L 2988 3500 
L 3597 3500 
L 2284 0 
L 1503 0 
L 191 3500 
z
" transform="scale(0.015625)"/>
     </defs>
     <use xlink:href="#DejaVuSans-53"/>
     <use xlink:href="#DejaVuSans-6f" x="63.476562"/>
     <use xlink:href="#DejaVuSans-6d" x="124.658203"/>
     <use xlink:href="#DejaVuSans-65" x="222.070312"/>
     <use xlink:href="#DejaVuSans-20" x="283.59375"/>
     <use xlink:href="#DejaVuSans-6d" x="315.380859"/>
     <use xlink:href="#DejaVuSans-6f" x="412.792969"/>
     <use xlink:href="#DejaVuSans-72" x="473.974609"/>
     <use xlink:href="#DejaVuSans-65" x="512.837891"/>
     <use xlink:href="#DejaVuSans-20" x="574.361328"/>
     <use xlink:href="#DejaVuSans-73" x="606.148438"/>
     <use xlink:href="#DejaVuSans-69" x="658.248047"/>
     <use xlink:href="#DejaVuSans-6e" x="686.03125"/>
     <use xlink:href="#DejaVuSans-65" x="749.410156"/>
     <use xlink:href="#DejaVuSans-20" x="810.933594"/>
     <use xlink:href="#DejaVuSans-77" x="842.720703"/>
     <use xlink:href="#DejaVuSans-61" x="924.507812"/>
     <use xlink:href="#DejaVuSans-76" x="985.787109"/>
     <use xlink:href="#DejaVuSans-65" x="1044.966797"/>
     <use xlink:href="#DejaVuSans-73" x="1106.490234"/>
    </g>
   </g>
  </g>
 </g>
 <defs>
  <clipPath id="pa2cd40f55a">
   <rect x="57.6" y="41.472" width="357.12" height="266.112"/>
  </clipPath>
 </defs>
</svg>
